Coordinates
version=1
nRows=41
nColumns=38
inDegrees=no

Units are S.I. units (second, meters, Newtons, ...)
If the header above contains a line with 'inDegrees', this indicates whether rotational values are in degrees (yes) or radians (no).

endheader
time	pelvis_tilt	pelvis_list	pelvis_rotation	pelvis_tx	pelvis_ty	pelvis_tz	hip_flexion_r	hip_adduction_r	hip_rotation_r	knee_angle_r	ankle_angle_r	subtalar_angle_r	mtp_angle_r	hip_flexion_l	hip_adduction_l	hip_rotation_l	knee_angle_l	ankle_angle_l	subtalar_angle_l	mtp_angle_l	lumbar_extension	lumbar_bending	lumbar_rotation	arm_flex_r	arm_add_r	arm_rot_r	elbow_flex_r	pro_sup_r	wrist_flex_r	wrist_dev_r	arm_flex_l	arm_add_l	arm_rot_l	elbow_flex_l	pro_sup_l	wrist_flex_l	wrist_dev_l
0	-1.70324	1.49334	0.251768	0.734892	1.47998	1.00116	0.549792	0.0670989	-0.0603527	0.707956	-0.199954	0	0	-0.313032	-0.131205	-0.239811	0.425154	-0.152164	0	0	-0.37833	0.177667	0.00300414	0.0241597	-0.364166	0.880214	0.359809	0.827262	0	0	0.0198988	-0.250971	0.662156	0.402495	1.11944	0	0
0.01	-1.75491	1.49249	0.299486	0.732663	1.46851	1.00113	0.551408	0.072326	-0.0510579	0.726536	-0.194559	0	0	-0.302595	-0.133937	-0.234992	0.459918	-0.158036	0	0	-0.375196	0.177371	0.00221423	0.0250832	-0.362095	0.883802	0.356339	0.825828	0	0	0.0162546	-0.248974	0.657385	0.397169	1.12895	0	0
0.02	-1.74994	1.49091	0.291473	0.730521	1.45646	1.00164	0.545555	0.0766271	-0.0564866	0.737905	-0.187736	0	0	-0.294762	-0.138915	-0.23111	0.497748	-0.166724	0	0	-0.37509	0.179212	0.00200896	0.0248257	-0.360481	0.888009	0.353196	0.826677	0	0	0.0129449	-0.245975	0.64932	0.391462	1.13136	0	0
0.03	-1.71126	1.48939	0.250678	0.728332	1.44452	1.00246	0.535459	0.0809402	-0.0675999	0.745134	-0.17967	0	0	-0.28588	-0.144672	-0.225084	0.541752	-0.177205	0	0	-0.377545	0.18149	0.00128053	0.0245364	-0.359618	0.89251	0.352196	0.827903	0	0	0.00856269	-0.245415	0.642404	0.389939	1.13426	0	0
0.04	-1.68154	1.48753	0.219163	0.72609	1.43272	1.00322	0.525484	0.0852807	-0.0799705	0.750628	-0.171697	0	0	-0.272423	-0.150104	-0.216387	0.590949	-0.187323	0	0	-0.378887	0.18353	0.000906697	0.0233457	-0.359201	0.895662	0.352731	0.828549	0	0	0.00359984	-0.246597	0.638547	0.390523	1.13848	0	0
0.05	-1.67424	1.4854	0.209899	0.723917	1.4212	1.00384	0.516915	0.0895673	-0.09066	0.755189	-0.164067	0	0	-0.253676	-0.154056	-0.20422	0.643721	-0.196198	0	0	-0.37819	0.185426	0.00127748	0.0215482	-0.359414	0.897632	0.354156	0.829032	0	0	-0.000660849	-0.247379	0.63484	0.390973	1.13899	0	0
0.06	-1.67787	1.48238	0.211373	0.721903	1.40996	1.00447	0.508352	0.094979	-0.0972222	0.758442	-0.155635	0	0	-0.231565	-0.15724	-0.189219	0.697755	-0.204869	0	0	-0.376354	0.188241	0.00258542	0.0197824	-0.360225	0.899631	0.355469	0.829352	0	0	-0.00391647	-0.247218	0.632421	0.3905	1.1392	0	0
0.07	-1.67996	1.47877	0.211011	0.720019	1.39894	1.00513	0.498863	0.10137	-0.100194	0.76109	-0.146931	0	0	-0.208149	-0.159586	-0.172469	0.751397	-0.209872	0	0	-0.374243	0.191419	0.00539477	0.0177499	-0.361419	0.901579	0.356427	0.829026	0	0	-0.00699261	-0.247803	0.632909	0.390952	1.14275	0	0
0.08	-1.67425	1.47489	0.202343	0.718104	1.38798	1.00581	0.488128	0.10859	-0.101167	0.763602	-0.137013	0	0	-0.185091	-0.161608	-0.156368	0.803532	-0.204011	0	0	-0.372265	0.194403	0.00998937	0.0150177	-0.362664	0.903556	0.357311	0.827285	0	0	-0.0103302	-0.249411	0.635353	0.392413	1.15168	0	0
0.09	-1.66185	1.47144	0.186166	0.716172	1.37712	1.00659	0.475794	0.116431	-0.0998353	0.764041	-0.128085	0	0	-0.162851	-0.162713	-0.143123	0.854255	-0.184972	0	0	-0.371095	0.196876	0.0154897	0.0122122	-0.364422	0.906256	0.359165	0.826068	0	0	-0.0130781	-0.249854	0.634514	0.393817	1.15699	0	0
0.1	-1.64007	1.46896	0.16021	0.714297	1.3664	1.00758	0.461566	0.123882	-0.0981922	0.76195	-0.119379	0	0	-0.141286	-0.162051	-0.132774	0.904196	-0.159391	0	0	-0.371432	0.198146	0.0212222	0.00996009	-0.365982	0.908926	0.360868	0.823501	0	0	-0.0156447	-0.250217	0.631537	0.3962	1.16022	0	0
0.11	-1.60934	1.46778	0.12491	0.71245	1.3558	1.00881	0.445591	0.130285	-0.097122	0.758074	-0.112123	0	0	-0.121138	-0.160247	-0.127965	0.950169	-0.137108	0	0	-0.373086	0.197803	0.0271943	0.00824151	-0.366689	0.911525	0.361509	0.820534	0	0	-0.0180842	-0.251083	0.628821	0.399502	1.16399	0	0
0.12	-1.56708	1.46798	0.0773755	0.7106	1.34531	1.01039	0.427168	0.135891	-0.094102	0.75205	-0.105626	0	0	-0.102431	-0.157352	-0.128174	0.990906	-0.120121	0	0	-0.376387	0.195809	0.0332693	0.00714792	-0.366733	0.912638	0.361281	0.816001	0	0	-0.0200263	-0.251435	0.625652	0.401406	1.16777	0	0
0.13	-1.51107	1.46976	0.0163312	0.708822	1.33497	1.01228	0.406772	0.139243	-0.0913633	0.745739	-0.0991383	0	0	-0.0843679	-0.152089	-0.127896	1.0271	-0.107271	0	0	-0.381226	0.191838	0.0388752	0.00662771	-0.366078	0.913849	0.360573	0.811853	0	0	-0.0209219	-0.251458	0.622097	0.402273	1.17167	0	0
0.14	-1.45093	1.47225	-0.0484139	0.707167	1.32481	1.01428	0.385819	0.14089	-0.0889016	0.739265	-0.0932074	0	0	-0.0660181	-0.144881	-0.12496	1.05872	-0.0969793	0	0	-0.386134	0.186637	0.0437738	0.00636488	-0.364903	0.914311	0.359427	0.808356	0	0	-0.0207557	-0.251042	0.619205	0.40189	1.17522	0	0
0.15	-1.3908	1.47465	-0.112596	0.705646	1.31484	1.01635	0.364236	0.142059	-0.0852685	0.731116	-0.0873434	0	0	-0.0471892	-0.137241	-0.119964	1.08588	-0.0871856	0	0	-0.390672	0.18134	0.0482939	0.00627973	-0.363505	0.914221	0.357764	0.804579	0	0	-0.0194476	-0.249874	0.616551	0.399697	1.17927	0	0
0.16	-1.33278	1.47659	-0.174031	0.704212	1.30503	1.0184	0.342458	0.142843	-0.0818807	0.721647	-0.0822694	0	0	-0.0278892	-0.130068	-0.11367	1.10875	-0.0780183	0	0	-0.394572	0.176588	0.052368	0.00635533	-0.362078	0.914491	0.35586	0.801396	0	0	-0.0172879	-0.24794	0.613854	0.395839	1.18303	0	0
0.17	-1.27671	1.47812	-0.232544	0.70295	1.29533	1.02043	0.320591	0.143095	-0.0803311	0.710627	-0.0782438	0	0	-0.00832726	-0.123843	-0.107545	1.12692	-0.0699989	0	0	-0.397786	0.172669	0.0552718	0.00667925	-0.360939	0.915032	0.354145	0.799347	0	0	-0.014963	-0.245847	0.611572	0.391759	1.18569	0	0
0.18	-1.23045	1.4795	-0.281046	0.701784	1.28576	1.0224	0.2993	0.143271	-0.0793668	0.697981	-0.0743557	0	0	0.0121392	-0.117854	-0.101594	1.14039	-0.0622898	0	0	-0.399853	0.169349	0.0576234	0.0073298	-0.360229	0.916121	0.352611	0.797955	0	0	-0.0126071	-0.243528	0.609248	0.387444	1.18832	0	0
0.19	-1.19315	1.48116	-0.320874	0.700685	1.27633	1.02435	0.278963	0.142877	-0.0800241	0.684319	-0.071516	0	0	0.0336539	-0.111999	-0.0976777	1.14928	-0.0559479	0	0	-0.401029	0.166119	0.0597858	0.00842441	-0.359751	0.916849	0.350728	0.7965	0	0	-0.0104983	-0.241318	0.607065	0.383722	1.19004	0	0
0.2	-1.15558	1.48261	-0.360394	0.6997	1.26691	1.02632	0.258267	0.142105	-0.0821646	0.669436	-0.0689476	0	0	0.0547566	-0.106758	-0.095567	1.1534	-0.0493926	0	0	-0.401549	0.163461	0.0615051	0.0093863	-0.359523	0.918422	0.349086	0.795904	0	0	-0.0084155	-0.238861	0.605476	0.380185	1.19224	0	0
0.21	-1.11581	1.48397	-0.401831	0.698748	1.25747	1.0283	0.23661	0.141315	-0.0837363	0.6525	-0.0663557	0	0	0.0750217	-0.101847	-0.0951003	1.15257	-0.0430376	0	0	-0.401713	0.160778	0.0628799	0.0102057	-0.359457	0.920904	0.347876	0.795889	0	0	-0.00659706	-0.236796	0.603732	0.377085	1.19507	0	0
0.22	-1.07236	1.48524	-0.446732	0.697852	1.24811	1.03024	0.2148	0.139998	-0.086093	0.635527	-0.0643693	0	0	0.0944266	-0.0966459	-0.0956527	1.14726	-0.0385156	0	0	-0.402173	0.157805	0.0639944	0.0111705	-0.359631	0.923533	0.347246	0.79558	0	0	-0.00534648	-0.235633	0.601124	0.375633	1.19748	0	0
0.23	-1.03033	1.48647	-0.490436	0.696953	1.23882	1.03209	0.193134	0.138625	-0.0880393	0.618215	-0.0630891	0	0	0.113203	-0.0913263	-0.0971252	1.13782	-0.0355471	0	0	-0.402685	0.154536	0.0653802	0.01219	-0.359829	0.925541	0.346784	0.794794	0	0	-0.00458761	-0.235416	0.598426	0.375806	1.19908	0	0
0.24	-0.983976	1.48773	-0.538777	0.69606	1.22956	1.0339	0.171168	0.136862	-0.0897925	0.600547	-0.0623482	0	0	0.131021	-0.0862749	-0.101301	1.1245	-0.0352859	0	0	-0.403583	0.150718	0.0671178	0.0131929	-0.35999	0.927276	0.346535	0.793737	0	0	-0.00364502	-0.235551	0.596423	0.376286	1.20023	0	0
0.25	-0.932699	1.48926	-0.592421	0.695216	1.22034	1.03565	0.149003	0.134556	-0.0900822	0.582474	-0.0618807	0	0	0.148202	-0.0807754	-0.107314	1.10793	-0.0373876	0	0	-0.404564	0.145991	0.0692244	0.0140066	-0.360296	0.928816	0.346863	0.792591	0	0	-0.00243169	-0.235871	0.594924	0.376823	1.20088	0	0
0.26	-0.872349	1.4907	-0.65519	0.694518	1.21117	1.03733	0.126571	0.131491	-0.0899022	0.564624	-0.0616433	0	0	0.164162	-0.074273	-0.113693	1.08825	-0.0408301	0	0	-0.406	0.1407	0.0714351	0.0147258	-0.361118	0.93044	0.347912	0.791521	0	0	-0.000964131	-0.236405	0.594143	0.377779	1.20128	0	0
0.27	-0.804726	1.49171	-0.725221	0.693895	1.20203	1.039	0.103372	0.128254	-0.0891634	0.545708	-0.0615672	0	0	0.177596	-0.0674727	-0.121528	1.06335	-0.0436812	0	0	-0.408114	0.135222	0.0734636	0.0157102	-0.362065	0.931723	0.349027	0.790249	0	0	0.000517808	-0.237267	0.593836	0.379322	1.2012	0	0
0.28	-0.740244	1.4921	-0.792447	0.693293	1.19288	1.0405	0.0802672	0.125477	-0.087886	0.526827	-0.0616385	0	0	0.189293	-0.0616093	-0.130841	1.0343	-0.0460194	0	0	-0.410154	0.130067	0.0758715	0.0165342	-0.363365	0.932866	0.350638	0.788859	0	0	0.00166742	-0.238079	0.593769	0.381466	1.20047	0	0
0.29	-0.682897	1.49237	-0.852785	0.692685	1.18372	1.04181	0.0574976	0.123167	-0.0854315	0.507374	-0.0619835	0	0	0.19983	-0.0569948	-0.141951	1.00084	-0.0491868	0	0	-0.411643	0.125113	0.0783724	0.0171314	-0.364938	0.933633	0.353079	0.787157	0	0	0.00259742	-0.238718	0.593457	0.383561	1.19931	0	0
0.3	-0.624528	1.49264	-0.914425	0.692125	1.17464	1.043	0.0350269	0.120471	-0.0826204	0.48794	-0.0625555	0	0	0.208757	-0.0535121	-0.156191	0.96256	-0.0541721	0	0	-0.413277	0.119891	0.0808964	0.0179641	-0.366536	0.934519	0.355638	0.785679	0	0	0.00379649	-0.239042	0.592798	0.385164	1.19789	0	0
0.31	-0.58223	1.49315	-0.959778	0.691618	1.1656	1.04382	0.0141067	0.118423	-0.0794436	0.468998	-0.0631003	0	0	0.218184	-0.0501886	-0.167555	0.922483	-0.0597903	0	0	-0.413695	0.115559	0.083462	0.0185951	-0.368294	0.935537	0.358311	0.78445	0	0	0.00475203	-0.239256	0.591724	0.386913	1.19635	0	0
0.32	-0.557928	1.49379	-0.986494	0.691152	1.15661	1.04429	-0.00504778	0.117234	-0.0760075	0.451333	-0.0640693	0	0	0.228076	-0.0473227	-0.175463	0.880739	-0.0662799	0	0	-0.41305	0.112386	0.0856713	0.0192146	-0.369944	0.936273	0.360794	0.78293	0	0	0.00544319	-0.239412	0.589947	0.388676	1.19474	0	0
0.33	-0.541027	1.49437	-1.0055	0.690762	1.14767	1.0445	-0.0232437	0.116445	-0.0722438	0.43491	-0.0655032	0	0	0.237128	-0.0447265	-0.182151	0.835786	-0.073871	0	0	-0.412104	0.109711	0.0875888	0.0199108	-0.37157	0.937018	0.363305	0.781252	0	0	0.00629827	-0.239032	0.587805	0.389585	1.19389	0	0
0.34	-0.530291	1.49504	-1.01802	0.690482	1.13876	1.04449	-0.0406934	0.115857	-0.0685568	0.41907	-0.0660735	0	0	0.245231	-0.0422093	-0.187042	0.788382	-0.083123	0	0	-0.410904	0.107525	0.0891663	0.0206975	-0.373227	0.937837	0.36575	0.779588	0	0	0.00754307	-0.237933	0.585625	0.389229	1.19438	0	0
0.35	-0.526376	1.49599	-1.02401	0.690222	1.12986	1.04426	-0.0567006	0.115184	-0.0659926	0.40505	-0.0654994	0	0	0.252665	-0.0400999	-0.191844	0.73919	-0.093898	0	0	-0.409304	0.105465	0.0909526	0.0215687	-0.374747	0.938806	0.367941	0.778168	0	0	0.00874403	-0.236623	0.583137	0.388454	1.19627	0	0
0.36	-0.531174	1.49753	-1.02139	0.690021	1.12098	1.04377	-0.0709544	0.114503	-0.0643055	0.392762	-0.0644421	0	0	0.260122	-0.0380268	-0.196391	0.689066	-0.105513	0	0	-0.406966	0.10361	0.092707	0.0224576	-0.376295	0.939666	0.370051	0.777132	0	0	0.00973015	-0.235314	0.580235	0.387739	1.19893	0	0
0.37	-0.543976	1.49956	-1.01089	0.689849	1.11207	1.043	-0.0839827	0.113954	-0.0626289	0.381363	-0.0632295	0	0	0.267514	-0.0363506	-0.201262	0.639097	-0.118302	0	0	-0.403926	0.10196	0.0945653	0.0231024	-0.377854	0.939709	0.372209	0.77557	0	0	0.0105502	-0.234001	0.577172	0.387068	1.2022	0	0
0.38	-0.557361	1.50135	-0.999674	0.689734	1.10315	1.04208	-0.0967828	0.113472	-0.060613	0.370893	-0.0618716	0	0	0.273744	-0.0347282	-0.20602	0.589833	-0.132411	0	0	-0.401403	0.100497	0.0964332	0.0236828	-0.379416	0.938963	0.374485	0.772943	0	0	0.0110666	-0.232897	0.572855	0.38709	1.20628	0	0
0.39	-0.569176	1.50268	-0.989976	0.689682	1.09422	1.041	-0.109249	0.113048	-0.059278	0.362147	-0.0599516	0	0	0.278725	-0.032861	-0.211384	0.541694	-0.147301	0	0	-0.399634	0.0991552	0.0982753	0.024499	-0.380495	0.938941	0.375794	0.770876	0	0	0.0109802	-0.232124	0.566996	0.388125	1.21079	0	0
0.4	-0.58165	1.50371	-0.979437	0.689675	1.08521	1.03973	-0.120462	0.112609	-0.0595586	0.357074	-0.0572392	0	0	0.283292	-0.0307646	-0.218333	0.496446	-0.160222	0	0	-0.398172	0.098028	0.0995467	0.0256427	-0.380761	0.940242	0.375689	0.770364	0	0	0.0101359	-0.231574	0.560367	0.389599	1.21498	0	0
